<svg width="1280" height="718" viewBox="0 0 1280 718" fill="none" xmlns="http://www.w3.org/2000/svg">
<path d="M358.812 115.644V70.495L287.525 0L265.346 22.1782L358.812 115.644Z" fill="black"/>
<path d="M358.812 648.713V601.188L265.346 693.861L289.109 717.624L358.812 648.713Z" fill="black"/>
<path d="M358.812 213.861V168.713L239.208 49.901L214.654 74.4555V213.861L239.208 238.416V96.6337L262.97 120.396V263.762L287.525 286.733V143.366L358.812 213.861Z" fill="black"/>
<path d="M358.812 501.386V549.703L239.208 669.307L214.654 645.545V502.97L239.208 478.416V620.99L262.97 597.228V453.861L287.525 429.307V573.465L358.812 501.386Z" fill="black"/>
<path d="M144.95 286.733H287.525L262.97 263.762H121.188L96.6336 238.416H239.208L214.653 213.861H72.0791L47.5247 238.416L167.921 358.812L47.5247 478.416L72.0791 502.97H214.653L239.208 478.416H96.6336L121.188 453.861H262.97L287.525 429.307H146.535L217.03 358.812L144.95 286.733Z" fill="black"/>
<path d="M0 429.307L70.495 358.812L0 289.109L24.5545 264.554L118.812 358.812L24.5545 453.861L0 429.307Z" fill="black"/>
<path d="M645.576 188.788V370.396H633.283C631.34 370.396 629.692 370.058 628.341 369.382C627.073 368.706 625.806 367.566 624.539 365.96L519.477 229.089C519.646 231.201 519.773 233.271 519.857 235.299C519.942 237.327 519.984 239.228 519.984 241.002V370.396H498.44V188.788H511.113C512.211 188.788 513.141 188.873 513.901 189.042C514.661 189.126 515.337 189.337 515.929 189.675C516.52 189.929 517.112 190.351 517.703 190.943C518.294 191.449 518.928 192.125 519.604 192.97L624.665 329.715C624.496 327.518 624.327 325.406 624.158 323.378C624.074 321.266 624.032 319.28 624.032 317.422V188.788H645.576ZM849.406 279.655C849.406 293.258 847.252 305.636 842.943 316.788C838.634 327.941 832.551 337.488 824.693 345.43C816.836 353.372 807.373 359.539 796.305 363.933C785.321 368.242 773.155 370.396 759.806 370.396H692.004V188.788H759.806C773.155 188.788 785.321 190.985 796.305 195.378C807.373 199.687 816.836 205.855 824.693 213.881C832.551 221.823 838.634 231.37 842.943 242.523C847.252 253.675 849.406 266.053 849.406 279.655ZM824.186 279.655C824.186 268.503 822.665 258.533 819.624 249.746C816.582 240.96 812.273 233.525 806.697 227.442C801.121 221.358 794.362 216.712 786.42 213.501C778.478 210.29 769.607 208.685 759.806 208.685H716.59V350.499H759.806C769.607 350.499 778.478 348.894 786.42 345.683C794.362 342.473 801.121 337.868 806.697 331.869C812.273 325.786 816.582 318.351 819.624 309.564C822.665 300.778 824.186 290.808 824.186 279.655ZM909.412 370.396H884.826V188.788H909.412V370.396ZM1103.51 188.788L1029.5 370.396H1007.45L933.434 188.788H953.077C955.274 188.788 957.048 189.337 958.4 190.436C959.752 191.534 960.766 192.928 961.442 194.618L1012.64 322.745C1013.74 325.617 1014.8 328.743 1015.81 332.123C1016.91 335.502 1017.88 339.051 1018.72 342.768C1019.57 339.051 1020.46 335.502 1021.39 332.123C1022.32 328.743 1023.33 325.617 1024.43 322.745L1075.5 194.618C1076.01 193.181 1076.98 191.872 1078.42 190.689C1079.94 189.422 1081.75 188.788 1083.87 188.788H1103.51ZM1210.23 302.974L1181.71 229.089C1180.87 226.892 1179.98 224.358 1179.05 221.485C1178.12 218.528 1177.24 215.402 1176.39 212.107C1174.62 218.95 1172.8 224.653 1170.94 229.216L1142.43 302.974H1210.23ZM1261.43 370.396H1242.42C1240.22 370.396 1238.45 369.847 1237.1 368.748C1235.75 367.65 1234.73 366.256 1234.06 364.566L1217.07 320.717H1135.58L1118.6 364.566C1118.1 366.087 1117.12 367.439 1115.69 368.622C1114.25 369.805 1112.48 370.396 1110.36 370.396H1091.35L1163.97 188.788H1188.81L1261.43 370.396Z" fill="black"/>
<path d="M439.826 292.348V549.109H394.709V292.348H439.826ZM449.457 211.746C449.457 216.14 448.528 220.28 446.669 224.166C444.98 227.884 442.614 231.263 439.572 234.305C436.7 237.178 433.236 239.459 429.18 241.148C425.294 242.838 421.154 243.683 416.76 243.683C412.367 243.683 408.227 242.838 404.341 241.148C400.623 239.459 397.328 237.178 394.455 234.305C391.583 231.263 389.302 227.884 387.612 224.166C385.922 220.28 385.077 216.14 385.077 211.746C385.077 207.353 385.922 203.213 387.612 199.327C389.302 195.271 391.583 191.807 394.455 188.935C397.328 185.893 400.623 183.527 404.341 181.838C408.227 180.148 412.367 179.303 416.76 179.303C421.154 179.303 425.294 180.148 429.18 181.838C433.236 183.527 436.7 185.893 439.572 188.935C442.614 191.807 444.98 195.271 446.669 199.327C448.528 203.213 449.457 207.353 449.457 211.746Z" fill="black"/>
<path d="M562.693 457.927V549.554H553.949C552.597 549.554 551.456 549.343 550.527 548.921C549.64 548.456 548.774 547.696 547.929 546.64L500.087 485.554C500.341 488.343 500.467 490.919 500.467 493.285V549.554H485.45V457.927H494.384C495.102 457.927 495.715 457.969 496.222 458.053C496.771 458.096 497.236 458.222 497.616 458.434C498.038 458.603 498.44 458.877 498.82 459.257C499.2 459.595 499.622 460.06 500.087 460.651L548.119 521.99C547.992 520.512 547.887 519.054 547.802 517.618C547.718 516.182 547.675 514.851 547.675 513.626V457.927H562.693ZM656.54 457.927V549.554H647.795C646.443 549.554 645.303 549.343 644.373 548.921C643.486 548.456 642.62 547.696 641.775 546.64L593.934 485.554C594.187 488.343 594.314 490.919 594.314 493.285V549.554H579.296V457.927H588.231C588.949 457.927 589.561 457.969 590.068 458.053C590.618 458.096 591.082 458.222 591.462 458.434C591.885 458.603 592.286 458.877 592.666 459.257C593.047 459.595 593.469 460.06 593.934 460.651L641.965 521.99C641.839 520.512 641.733 519.054 641.649 517.618C641.564 516.182 641.522 514.851 641.522 513.626V457.927H656.54ZM760.525 503.741C760.525 510.457 759.405 516.688 757.166 522.434C754.97 528.137 751.844 533.079 747.788 537.261C743.733 541.444 738.854 544.717 733.151 547.083C727.448 549.407 721.111 550.568 714.141 550.568C707.213 550.568 700.897 549.407 695.194 547.083C689.491 544.717 684.591 541.444 680.493 537.261C676.438 533.079 673.29 528.137 671.052 522.434C668.813 516.688 667.693 510.457 667.693 503.741C667.693 497.024 668.813 490.814 671.052 485.111C673.29 479.366 676.438 474.402 680.493 470.22C684.591 466.038 689.491 462.785 695.194 460.461C700.897 458.096 707.213 456.913 714.141 456.913C718.787 456.913 723.16 457.462 727.257 458.56C731.355 459.616 735.115 461.137 738.537 463.123C741.958 465.066 745.021 467.453 747.725 470.283C750.471 473.071 752.794 476.197 754.695 479.661C756.596 483.125 758.032 486.885 759.004 490.941C760.018 494.996 760.525 499.263 760.525 503.741ZM743.099 503.741C743.099 498.714 742.423 494.215 741.071 490.244C739.72 486.23 737.797 482.83 735.305 480.042C732.813 477.253 729.771 475.12 726.18 473.642C722.632 472.163 718.619 471.424 714.141 471.424C709.663 471.424 705.628 472.163 702.038 473.642C698.489 475.12 695.448 477.253 692.913 480.042C690.42 482.83 688.498 486.23 687.147 490.244C685.795 494.215 685.119 498.714 685.119 503.741C685.119 508.768 685.795 513.288 687.147 517.301C688.498 521.272 690.42 524.651 692.913 527.44C695.448 530.185 698.489 532.298 702.038 533.776C705.628 535.255 709.663 535.994 714.141 535.994C718.619 535.994 722.632 535.255 726.18 533.776C729.771 532.298 732.813 530.185 735.305 527.44C737.797 524.651 739.72 521.272 741.071 517.301C742.423 513.288 743.099 508.768 743.099 503.741ZM847.233 457.927L810.227 549.554H794.829L757.823 457.927H771.51C772.988 457.927 774.192 458.286 775.122 459.004C776.051 459.722 776.748 460.651 777.213 461.792L798.821 517.681C799.539 519.498 800.215 521.504 800.849 523.701C801.524 525.855 802.158 528.115 802.75 530.481C803.256 528.115 803.806 525.855 804.397 523.701C804.988 521.504 805.643 519.498 806.361 517.681L827.843 461.792C828.181 460.82 828.835 459.933 829.807 459.131C830.821 458.328 832.046 457.927 833.482 457.927H847.233ZM894.025 514.956L882.872 484.477C882.323 483.125 881.753 481.52 881.161 479.661C880.57 477.803 879.979 475.796 879.387 473.642C878.838 475.796 878.268 477.824 877.676 479.725C877.085 481.583 876.515 483.21 875.965 484.604L864.876 514.956H894.025ZM924.124 549.554H910.944C909.465 549.554 908.261 549.195 907.332 548.477C906.402 547.717 905.705 546.787 905.241 545.689L898.397 526.996H860.441L853.597 545.689C853.259 546.661 852.604 547.548 851.633 548.35C850.661 549.153 849.457 549.554 848.021 549.554H834.714L870.769 457.927H888.132L924.124 549.554ZM984.895 471.931H957.267V549.554H940.222V471.931H912.594V457.927H984.895V471.931ZM1010.19 549.554H993.083V457.927H1010.19V549.554ZM1114.29 503.741C1114.29 510.457 1113.17 516.688 1110.93 522.434C1108.73 528.137 1105.61 533.079 1101.55 537.261C1097.5 541.444 1092.62 544.717 1086.91 547.083C1081.21 549.407 1074.87 550.568 1067.9 550.568C1060.97 550.568 1054.66 549.407 1048.96 547.083C1043.25 544.717 1038.35 541.444 1034.26 537.261C1030.2 533.079 1027.05 528.137 1024.81 522.434C1022.57 516.688 1021.46 510.457 1021.46 503.741C1021.46 497.024 1022.57 490.814 1024.81 485.111C1027.05 479.366 1030.2 474.402 1034.26 470.22C1038.35 466.038 1043.25 462.785 1048.96 460.461C1054.66 458.096 1060.97 456.913 1067.9 456.913C1072.55 456.913 1076.92 457.462 1081.02 458.56C1085.12 459.616 1088.88 461.137 1092.3 463.123C1095.72 465.066 1098.78 467.453 1101.49 470.283C1104.23 473.071 1106.56 476.197 1108.46 479.661C1110.36 483.125 1111.79 486.885 1112.77 490.941C1113.78 494.996 1114.29 499.263 1114.29 503.741ZM1096.86 503.741C1096.86 498.714 1096.19 494.215 1094.83 490.244C1093.48 486.23 1091.56 482.83 1089.07 480.042C1086.57 477.253 1083.53 475.12 1079.94 473.642C1076.39 472.163 1072.38 471.424 1067.9 471.424C1063.43 471.424 1059.39 472.163 1055.8 473.642C1052.25 475.12 1049.21 477.253 1046.68 480.042C1044.18 482.83 1042.26 486.23 1040.91 490.244C1039.56 494.215 1038.88 498.714 1038.88 503.741C1038.88 508.768 1039.56 513.288 1040.91 517.301C1042.26 521.272 1044.18 524.651 1046.68 527.44C1049.21 530.185 1052.25 532.298 1055.8 533.776C1059.39 535.255 1063.43 535.994 1067.9 535.994C1072.38 535.994 1076.39 535.255 1079.94 533.776C1083.53 532.298 1086.57 530.185 1089.07 527.44C1091.56 524.651 1093.48 521.272 1094.83 517.301C1096.19 513.288 1096.86 508.768 1096.86 503.741ZM1202.7 457.927V549.554H1193.95C1192.6 549.554 1191.46 549.343 1190.53 548.921C1189.64 548.456 1188.78 547.696 1187.93 546.64L1140.09 485.554C1140.35 488.343 1140.47 490.919 1140.47 493.285V549.554H1125.45V457.927H1134.39C1135.11 457.927 1135.72 457.969 1136.23 458.053C1136.78 458.096 1137.24 458.222 1137.62 458.434C1138.04 458.603 1138.44 458.877 1138.82 459.257C1139.2 459.595 1139.63 460.06 1140.09 460.651L1188.12 521.99C1188 520.512 1187.89 519.054 1187.81 517.618C1187.72 516.182 1187.68 514.851 1187.68 513.626V457.927H1202.7ZM1268.09 474.592C1267.59 475.479 1267.04 476.134 1266.45 476.556C1265.9 476.937 1265.2 477.127 1264.35 477.127C1263.47 477.127 1262.5 476.81 1261.44 476.176C1260.43 475.5 1259.2 474.761 1257.76 473.958C1256.33 473.156 1254.64 472.438 1252.7 471.804C1250.79 471.128 1248.53 470.79 1245.91 470.79C1243.55 470.79 1241.48 471.086 1239.71 471.677C1237.93 472.226 1236.43 473.008 1235.21 474.022C1234.02 475.036 1233.14 476.261 1232.54 477.697C1231.95 479.091 1231.66 480.633 1231.66 482.323C1231.66 484.477 1232.25 486.273 1233.43 487.709C1234.66 489.145 1236.26 490.37 1238.25 491.384C1240.23 492.398 1242.49 493.306 1245.03 494.109C1247.56 494.912 1250.16 495.778 1252.82 496.707C1255.48 497.594 1258.08 498.65 1260.62 499.875C1263.15 501.058 1265.41 502.579 1267.4 504.438C1269.38 506.254 1270.97 508.493 1272.15 511.154C1273.37 513.816 1273.99 517.048 1273.99 520.849C1273.99 524.989 1273.27 528.876 1271.83 532.509C1270.44 536.1 1268.37 539.247 1265.62 541.95C1262.92 544.612 1259.6 546.724 1255.67 548.287C1251.74 549.808 1247.25 550.568 1242.18 550.568C1239.26 550.568 1236.39 550.273 1233.56 549.681C1230.73 549.132 1228 548.329 1225.38 547.273C1222.81 546.217 1220.38 544.95 1218.1 543.471C1215.82 541.993 1213.79 540.345 1212.01 538.529L1217.02 530.354C1217.44 529.763 1217.99 529.277 1218.67 528.897C1219.34 528.475 1220.06 528.263 1220.82 528.263C1221.88 528.263 1223.02 528.707 1224.24 529.594C1225.47 530.439 1226.93 531.389 1228.62 532.446C1230.31 533.502 1232.27 534.473 1234.51 535.36C1236.79 536.205 1239.51 536.628 1242.68 536.628C1247.54 536.628 1251.3 535.487 1253.96 533.206C1256.62 530.882 1257.95 527.566 1257.95 523.257C1257.95 520.849 1257.34 518.885 1256.12 517.364C1254.93 515.844 1253.35 514.576 1251.36 513.562C1249.38 512.506 1247.12 511.619 1244.58 510.901C1242.05 510.183 1239.47 509.401 1236.85 508.556C1234.23 507.712 1231.66 506.698 1229.12 505.515C1226.59 504.332 1224.33 502.79 1222.34 500.889C1220.36 498.988 1218.75 496.622 1217.53 493.792C1216.34 490.919 1215.75 487.392 1215.75 483.21C1215.75 479.873 1216.41 476.62 1217.72 473.451C1219.07 470.283 1221.01 467.474 1223.55 465.024C1226.08 462.574 1229.21 460.609 1232.92 459.131C1236.64 457.652 1240.91 456.913 1245.72 456.913C1251.13 456.913 1256.12 457.758 1260.68 459.448C1265.24 461.137 1269.13 463.503 1272.34 466.545L1268.09 474.592Z" fill="black"/>
</svg>
